<svg width="155" height="155" viewBox="0 0 155 155" fill="none" xmlns="http://www.w3.org/2000/svg">
<path fill-rule="evenodd" clip-rule="evenodd" d="M67.544 0.541665C57.996 1.67467 46.431 5.60967 37.785 10.6657C29.347 15.5997 15.211 29.5977 10.362 37.8207C5.898 45.3907 1.378 58.2767 0.610001 65.6207L0 71.4567H24.959H49.917L52.192 65.9677C54.967 59.2717 62.289 52.3247 68.969 50.0487C76.768 47.3917 84.109 47.9387 91.417 51.7217C98.158 55.2107 104.293 62.0047 105.962 67.8287L106.859 70.9567L130.572 71.2247C157.923 71.5337 155.45 72.8747 152.239 59.4807C143.108 21.3877 106.504 -4.08533 67.544 0.541665ZM70.377 63.6177C64.584 67.5927 62.785 70.8727 62.785 77.4567C62.785 84.0407 64.584 87.3207 70.377 91.2957C77.226 95.9947 88.962 92.7917 92.976 85.1277C96.574 78.2567 94.359 68.7817 88.115 64.3357C83.293 60.9027 74.834 60.5597 70.377 63.6177ZM0.610001 89.2927C1.378 96.6367 5.898 109.523 10.362 117.093C15.211 125.316 29.347 139.314 37.785 144.248C82.527 170.412 140.158 145.832 152.239 95.4327C155.45 82.0397 157.916 83.3797 130.618 83.6887L106.951 83.9567L105.58 88.0717C103.698 93.7177 98.538 99.4467 92.144 102.989C87.374 105.631 85.851 105.956 78.285 105.945C71.517 105.935 68.961 105.494 65.74 103.779C60.453 100.964 53.679 93.5417 51.272 87.9267L49.356 83.4567H24.678H0L0.610001 89.2927Z" fill="black" fill-opacity="0.05"/>
</svg>
